<svg id="Layer_1" data-name="Layer 1" xmlns="http://www.w3.org/2000/svg" viewBox="0 0 750 369.07"><defs><style>.cls-1,.cls-4{fill:#2b2b2b;}.cls-2{font-size:286.71px;}.cls-2,.cls-3{fill:#e6e6dd;}.cls-2,.cls-4,.cls-6{font-family:Anton-Regular, Anton;}.cls-4,.cls-6{font-size:65.63px;}.cls-5,.cls-6{fill:#6a6aff;}</style></defs><rect class="cls-1" width="750" height="300"/><text class="cls-2" transform="translate(127.6 275.7) scale(0.96 1)">ALEX</text><rect class="cls-3" x="18.67" y="23" width="98.27" height="257.5"/><rect class="cls-3" x="631.58" y="23" width="97.01" height="257.5"/><text class="cls-4" transform="matrix(0, -1.61, 1, 0, 95.13, 242.11)">WHY</text><path class="cls-1" d="M667.83,180.77V159q0-6.69,2.56-10.88a22.71,22.71,0,0,1,7.1-7.11,61.57,61.57,0,0,0,6.7-5.54,29,29,0,0,0,5.52-7.21,18.94,18.94,0,0,0,2.22-9.2q0-7.22-4-10.67T676.79,105a14.32,14.32,0,0,0-8.75,2.67,21.08,21.08,0,0,0-5.78,6.43,29.6,29.6,0,0,0-3,7L641,112.19a25.57,25.57,0,0,1,1.69-5A44.77,44.77,0,0,1,647,99.64a42.59,42.59,0,0,1,7.35-8,37.26,37.26,0,0,1,25-8.88,42,42,0,0,1,18.67,4A30.62,30.62,0,0,1,710.82,98a31.9,31.9,0,0,1,4.61,17.35A32.89,32.89,0,0,1,712,130.9a43.55,43.55,0,0,1-8.49,11.35q-5,4.75-9.44,8.2a15,15,0,0,0-5.61,6.59,27.47,27.47,0,0,0-1.44,9.83v13.9Zm9.83,45a12.63,12.63,0,0,1-10-5,18.19,18.19,0,0,1-4.17-12,18.49,18.49,0,0,1,4.17-12.23,12.63,12.63,0,0,1,10-5,12.77,12.77,0,0,1,10.18,5A18.44,18.44,0,0,1,692,208.69a18.14,18.14,0,0,1-4.18,12A12.77,12.77,0,0,1,677.66,225.73Z"/><path class="cls-5" d="M660.29,175.44V153.69q0-6.69,2.57-10.87a22.47,22.47,0,0,1,7.09-7.11,59.72,59.72,0,0,0,6.7-5.54,29,29,0,0,0,5.53-7.21,18.94,18.94,0,0,0,2.22-9.2q0-7.22-4-10.67t-11.09-3.45a14.3,14.3,0,0,0-8.75,2.67,20.72,20.72,0,0,0-5.78,6.43,29.14,29.14,0,0,0-3.05,7l-18.19-8.89a25.76,25.76,0,0,1,1.7-5,43.72,43.72,0,0,1,4.31-7.58,42.29,42.29,0,0,1,7.35-8,37.28,37.28,0,0,1,25-8.89,42.1,42.1,0,0,1,18.66,4,30.52,30.52,0,0,1,12.75,11.3A31.81,31.81,0,0,1,707.89,110a32.89,32.89,0,0,1-3.48,15.58,43.69,43.69,0,0,1-8.48,11.34q-5,4.77-9.44,8.21a14.78,14.78,0,0,0-5.61,6.59,27.41,27.41,0,0,0-1.44,9.82v13.91Zm9.84,45q-5.83,0-10-5a18.24,18.24,0,0,1-4.18-12,18.51,18.51,0,0,1,4.18-12.23q4.18-5,10-5a12.82,12.82,0,0,1,10.18,5,18.51,18.51,0,0,1,4.18,12.23,18.24,18.24,0,0,1-4.18,12A12.82,12.82,0,0,1,670.13,220.4Z"/><text class="cls-6" transform="matrix(0, -1.61, 1, 0, 90.05, 236.84)">WHY</text></svg>